<?xml version="1.0" encoding="UTF-8"?>
<!DOCTYPE svg PUBLIC "-//W3C//DTD SVG 1.1//EN" "http://www.w3.org/Graphics/SVG/1.1/DTD/svg11.dtd">
<svg version="1.2" xmlns="http://www.w3.org/2000/svg" xmlns:xlink="http://www.w3.org/1999/xlink" x="0" y="0" width="459" height="484" viewBox="0 0 459 484">
<style type="text/css"><![CDATA[
text { font:12px Dialog; }
]]></style>
<rect x="-782" y="-485" width="2028" height="1454" style="fill:rgb(243,244,249);stroke:none" />
<clipPath id="clip1"><path d="M14,14 L445,14 L445,470 L14,470 L14,14 Z" /></clipPath>
<path d="M239.8483582,216 C253.8820496,92.4455566 274.9326172,30.668335 303,30.668335" style="fill:none;stroke:rgb(0,64,128)" clip-path="url(#clip1)" />
<clipPath id="clip2"><path d="M14,14 L445,14 L445,470 L14,470 L14,14 Z" /></clipPath>
<path d="M248.743515,216 C268.3560791,132.4020081 297.7749023,90.6030121 337,90.6030121" style="fill:none;stroke:rgb(0,64,128)" clip-path="url(#clip2)" />
<clipPath id="clip3"><path d="M14,14 L445,14 L445,470 L14,470 L14,14 Z" /></clipPath>
<path d="M264.909729,216 C284.70755,172.4455566 314.4043274,150.668335 354,150.668335" style="fill:none;stroke:rgb(0,64,128)" clip-path="url(#clip3)" />
<clipPath id="clip4"><path d="M14,14 L445,14 L445,470 L14,470 L14,14 Z" /></clipPath>
<path d="M300,224.8578491 C313.777771,215.419281 334.444458,210.6999969 362,210.6999969" style="fill:none;stroke:rgb(0,64,128)" clip-path="url(#clip4)" />
<clipPath id="clip5"><path d="M14,14 L445,14 L445,470 L14,470 L14,14 Z" /></clipPath>
<path d="M300,256.3354797 C313.777771,265.8907166 334.444458,270.668335 362,270.668335" style="fill:none;stroke:rgb(0,64,128)" clip-path="url(#clip5)" />
<clipPath id="clip6"><path d="M14,14 L445,14 L445,470 L14,470 L14,14 Z" /></clipPath>
<path d="M264.7849731,265 C284.6105347,308.7789001 314.348877,330.668335 354,330.668335" style="fill:none;stroke:rgb(0,64,128)" clip-path="url(#clip6)" />
<clipPath id="clip7"><path d="M14,14 L445,14 L445,470 L14,470 L14,14 Z" /></clipPath>
<path d="M248.708725,265 C268.32901,348.7999878 297.7594299,390.7000122 337,390.7000122" style="fill:none;stroke:rgb(0,64,128)" clip-path="url(#clip7)" />
<clipPath id="clip8"><path d="M14,14 L445,14 L445,470 L14,470 L14,14 Z" /></clipPath>
<path d="M239.833725,265 C253.8706818,388.7999878 274.9260864,450.7000122 303,450.7000122" style="fill:none;stroke:rgb(0,64,128)" clip-path="url(#clip8)" />
<clipPath id="clip9"><path d="M14,14 L445,14 L445,470 L14,470 L14,14 Z" /></clipPath>
<path d="M223.3333282,265 C209.4814758,389.666687 188.7037048,452 161,452" style="fill:none;stroke:rgb(0,64,128)" clip-path="url(#clip9)" />
<clipPath id="clip10"><path d="M14,14 L445,14 L445,470 L14,470 L14,14 Z" /></clipPath>
<path d="M214.1720734,265 C194.5782776,348.1111145 165.1875916,389.666687 126,389.666687" style="fill:none;stroke:rgb(0,64,128)" clip-path="url(#clip10)" />
<clipPath id="clip11"><path d="M14,14 L445,14 L445,470 L14,470 L14,14 Z" /></clipPath>
<path d="M197.865509,265 C178.11763,308.1542358 148.4957886,329.7313538 109,329.7313538" style="fill:none;stroke:rgb(0,64,128)" clip-path="url(#clip11)" />
<clipPath id="clip12"><path d="M14,14 L445,14 L445,470 L14,470 L14,14 Z" /></clipPath>
<path d="M163,255.7757568 C149.222229,264.9932556 128.5555573,269.6019897 101,269.6019897" style="fill:none;stroke:rgb(0,64,128)" clip-path="url(#clip12)" />
<clipPath id="clip13"><path d="M14,14 L445,14 L445,470 L14,470 L14,14 Z" /></clipPath>
<path d="M163,224.1562653 C149.4444427,214.4534149 129.1111145,209.6019897 102,209.6019897" style="fill:none;stroke:rgb(0,64,128)" clip-path="url(#clip13)" />
<clipPath id="clip14"><path d="M14,14 L445,14 L445,470 L14,470 L14,14 Z" /></clipPath>
<path d="M198.4822235,216 C178.59729,171.7346497 148.7698669,149.6019897 109,149.6019897" style="fill:none;stroke:rgb(0,64,128)" clip-path="url(#clip14)" />
<clipPath id="clip15"><path d="M14,14 L445,14 L445,470 L14,470 L14,14 Z" /></clipPath>
<path d="M214.5259705,216 C195.0757446,131.777771 165.9004211,89.6666718 127,89.6666718" style="fill:none;stroke:rgb(0,64,128)" clip-path="url(#clip15)" />
<clipPath id="clip16"><path d="M14,14 L445,14 L445,470 L14,470 L14,14 Z" /></clipPath>
<path d="M223.3075104,216 C209.4613953,91.7777863 188.6922302,29.6666718 161,29.6666718" style="fill:none;stroke:rgb(0,64,128)" clip-path="url(#clip16)" />
<clipPath id="clip17"><path d="M161,214 L303,214 L303,268 L161,268 L161,214 Z" /></clipPath>
<path d="M163,224 C163,219.5817261 166.5817261,216 171,216 L292,216 C296.4182739,216 300,219.5817261 300,224 L300,257 C300,261.4182739 296.4182739,265 292,265 L171,265 C166.5817261,265 163,261.4182739 163,257 Z M163,224" style="fill:rgb(104,163,223);stroke:none" clip-path="url(#clip17)" />
<clipPath id="clip18"><path d="M161,214 L303,214 L303,268 L161,268 L161,214 Z" /></clipPath>
<path d="M163,224 C163,219.5817261 166.5817261,216 171,216 L292,216 C296.4182739,216 300,219.5817261 300,224 L300,257 C300,261.4182739 296.4182739,265 292,265 L171,265 C166.5817261,265 163,261.4182739 163,257 Z M163,224" style="fill:none;stroke:rgb(0,64,128)" clip-path="url(#clip18)" />
<text x="187" y="250" style="font:18px Verdana">科目三考试</text>
<clipPath id="clip19"><path d="M301,15 L373,15 L373,47 L301,47 L301,15 Z" /></clipPath>
<path d="M303,22 C303,19.2385712 305.2385864,17 308,17 L365,17 C367.7614136,17 370,19.2385712 370,22 L370,39 C370,41.7614288 367.7614136,44 365,44 L308,44 C305.2385864,44 303,41.7614288 303,39 Z M303,22" style="fill:rgb(211,223,255);stroke:none" clip-path="url(#clip19)" />
<clipPath id="clip20"><path d="M301,15 L373,15 L373,47 L301,47 L301,15 Z" /></clipPath>
<path d="M303,22 C303,19.2385712 305.2385864,17 308,17 L365,17 C367.7614136,17 370,19.2385712 370,22 L370,39 C370,41.7614288 367.7614136,44 365,44 L308,44 C305.2385864,44 303,41.7614288 303,39 Z M303,22" style="fill:none;stroke:rgb(0,64,128)" clip-path="url(#clip20)" />
<text x="310" y="38" style="font:13px Verdana">上车准备</text>
<clipPath id="clip21"><path d="M335,75 L381,75 L381,107 L335,107 L335,75 Z" /></clipPath>
<path d="M337,82 C337,79.2385712 339.2385864,77 342,77 L373,77 C375.7614136,77 378,79.2385712 378,82 L378,99 C378,101.7614288 375.7614136,104 373,104 L342,104 C339.2385864,104 337,101.7614288 337,99 Z M337,82" style="fill:rgb(211,223,255);stroke:none" clip-path="url(#clip21)" />
<clipPath id="clip22"><path d="M335,75 L381,75 L381,107 L335,107 L335,75 Z" /></clipPath>
<path d="M337,82 C337,79.2385712 339.2385864,77 342,77 L373,77 C375.7614136,77 378,79.2385712 378,82 L378,99 C378,101.7614288 375.7614136,104 373,104 L342,104 C339.2385864,104 337,101.7614288 337,99 Z M337,82" style="fill:none;stroke:rgb(0,64,128)" clip-path="url(#clip22)" />
<text x="344" y="98" style="font:13px Verdana">起步</text>
<clipPath id="clip23"><path d="M352,135 L424,135 L424,167 L352,167 L352,135 Z" /></clipPath>
<path d="M354,142 C354,139.2385712 356.2385864,137 359,137 L416,137 C418.7614136,137 421,139.2385712 421,142 L421,159 C421,161.7614288 418.7614136,164 416,164 L359,164 C356.2385864,164 354,161.7614288 354,159 Z M354,142" style="fill:rgb(211,223,255);stroke:none" clip-path="url(#clip23)" />
<clipPath id="clip24"><path d="M352,135 L424,135 L424,167 L352,167 L352,135 Z" /></clipPath>
<path d="M354,142 C354,139.2385712 356.2385864,137 359,137 L416,137 C418.7614136,137 421,139.2385712 421,142 L421,159 C421,161.7614288 418.7614136,164 416,164 L359,164 C356.2385864,164 354,161.7614288 354,159 Z M354,142" style="fill:none;stroke:rgb(0,64,128)" clip-path="url(#clip24)" />
<text x="361" y="158" style="font:13px Verdana">直线行驶</text>
<clipPath id="clip25"><path d="M360,195 L445,195 L445,227 L360,227 L360,195 Z" /></clipPath>
<path d="M362,202 C362,199.2385712 364.2385864,197 367,197 L437,197 C439.7614136,197 442,199.2385712 442,202 L442,219 C442,221.7614288 439.7614136,224 437,224 L367,224 C364.2385864,224 362,221.7614288 362,219 Z M362,202" style="fill:rgb(211,223,255);stroke:none" clip-path="url(#clip25)" />
<clipPath id="clip26"><path d="M360,195 L445,195 L445,227 L360,227 L360,195 Z" /></clipPath>
<path d="M362,202 C362,199.2385712 364.2385864,197 367,197 L437,197 C439.7614136,197 442,199.2385712 442,202 L442,219 C442,221.7614288 439.7614136,224 437,224 L367,224 C364.2385864,224 362,221.7614288 362,219 Z M362,202" style="fill:none;stroke:rgb(0,64,128)" clip-path="url(#clip26)" />
<text x="369" y="218" style="font:13px Verdana">加减挡操作</text>
<clipPath id="clip27"><path d="M360,255 L432,255 L432,287 L360,287 L360,255 Z" /></clipPath>
<path d="M362,262 C362,259.2385864 364.2385864,257 367,257 L424,257 C426.7614136,257 429,259.2385864 429,262 L429,279 C429,281.7614136 426.7614136,284 424,284 L367,284 C364.2385864,284 362,281.7614136 362,279 Z M362,262" style="fill:rgb(211,223,255);stroke:none" clip-path="url(#clip27)" />
<clipPath id="clip28"><path d="M360,255 L432,255 L432,287 L360,287 L360,255 Z" /></clipPath>
<path d="M362,262 C362,259.2385864 364.2385864,257 367,257 L424,257 C426.7614136,257 429,259.2385864 429,262 L429,279 C429,281.7614136 426.7614136,284 424,284 L367,284 C364.2385864,284 362,281.7614136 362,279 Z M362,262" style="fill:none;stroke:rgb(0,64,128)" clip-path="url(#clip28)" />
<text x="369" y="277" style="font:13px Verdana">变更车道</text>
<clipPath id="clip29"><path d="M352,315 L424,315 L424,347 L352,347 L352,315 Z" /></clipPath>
<path d="M354,322 C354,319.2385864 356.2385864,317 359,317 L416,317 C418.7614136,317 421,319.2385864 421,322 L421,339 C421,341.7614136 418.7614136,344 416,344 L359,344 C356.2385864,344 354,341.7614136 354,339 Z M354,322" style="fill:rgb(211,223,255);stroke:none" clip-path="url(#clip29)" />
<clipPath id="clip30"><path d="M352,315 L424,315 L424,347 L352,347 L352,315 Z" /></clipPath>
<path d="M354,322 C354,319.2385864 356.2385864,317 359,317 L416,317 C418.7614136,317 421,319.2385864 421,322 L421,339 C421,341.7614136 418.7614136,344 416,344 L359,344 C356.2385864,344 354,341.7614136 354,339 Z M354,322" style="fill:none;stroke:rgb(0,64,128)" clip-path="url(#clip30)" />
<text x="361" y="337" style="font:13px Verdana">通过路口</text>
<clipPath id="clip31"><path d="M335,375 L420,375 L420,407 L335,407 L335,375 Z" /></clipPath>
<path d="M337,382 C337,379.2385864 339.2385864,377 342,377 L412,377 C414.7614136,377 417,379.2385864 417,382 L417,399 C417,401.7614136 414.7614136,404 412,404 L342,404 C339.2385864,404 337,401.7614136 337,399 Z M337,382" style="fill:rgb(211,223,255);stroke:none" clip-path="url(#clip31)" />
<clipPath id="clip32"><path d="M335,375 L420,375 L420,407 L335,407 L335,375 Z" /></clipPath>
<path d="M337,382 C337,379.2385864 339.2385864,377 342,377 L412,377 C414.7614136,377 417,379.2385864 417,382 L417,399 C417,401.7614136 414.7614136,404 412,404 L342,404 C339.2385864,404 337,401.7614136 337,399 Z M337,382" style="fill:none;stroke:rgb(0,64,128)" clip-path="url(#clip32)" />
<text x="344" y="397" style="font:13px Verdana">路口左转弯</text>
<clipPath id="clip33"><path d="M301,435 L386,435 L386,467 L301,467 L301,435 Z" /></clipPath>
<path d="M303,442 C303,439.2385864 305.2385864,437 308,437 L378,437 C380.7614136,437 383,439.2385864 383,442 L383,459 C383,461.7614136 380.7614136,464 378,464 L308,464 C305.2385864,464 303,461.7614136 303,459 Z M303,442" style="fill:rgb(211,223,255);stroke:none" clip-path="url(#clip33)" />
<clipPath id="clip34"><path d="M301,435 L386,435 L386,467 L301,467 L301,435 Z" /></clipPath>
<path d="M303,442 C303,439.2385864 305.2385864,437 308,437 L378,437 C380.7614136,437 383,439.2385864 383,442 L383,459 C383,461.7614136 380.7614136,464 378,464 L308,464 C305.2385864,464 303,461.7614136 303,459 Z M303,442" style="fill:none;stroke:rgb(0,64,128)" clip-path="url(#clip34)" />
<text x="310" y="457" style="font:13px Verdana">路口右转弯</text>
<clipPath id="clip35"><path d="M61,435 L164,435 L164,470 L61,470 L61,435 Z" /></clipPath>
<path d="M63,442 C63,439.2385864 65.2385712,437 68,437 L156,437 C158.7614288,437 161,439.2385864 161,442 L161,462 C161,464.7614136 158.7614288,467 156,467 L68,467 C65.2385712,467 63,464.7614136 63,462 Z M63,442" style="fill:rgb(211,223,255);stroke:none" clip-path="url(#clip35)" />
<clipPath id="clip36"><path d="M61,435 L164,435 L164,470 L61,470 L61,435 Z" /></clipPath>
<path d="M63,442 C63,439.2385864 65.2385712,437 68,437 L156,437 C158.7614288,437 161,439.2385864 161,442 L161,462 C161,464.7614136 158.7614288,467 156,467 L68,467 C65.2385712,467 63,464.7614136 63,462 Z M63,442" style="fill:none;stroke:rgb(0,64,128)" clip-path="url(#clip36)" />
<text x="71" y="457" style="font:13px Verdana">通道人行横道 </text>
<clipPath id="clip37"><path d="M57,374 L129,374 L129,406 L57,406 L57,374 Z" /></clipPath>
<path d="M59,381 C59,378.2385864 61.2385712,376 64,376 L121,376 C123.7614288,376 126,378.2385864 126,381 L126,398 C126,400.7614136 123.7614288,403 121,403 L64,403 C61.2385712,403 59,400.7614136 59,398 Z M59,381" style="fill:rgb(211,223,255);stroke:none" clip-path="url(#clip37)" />
<clipPath id="clip38"><path d="M57,374 L129,374 L129,406 L57,406 L57,374 Z" /></clipPath>
<path d="M59,381 C59,378.2385864 61.2385712,376 64,376 L121,376 C123.7614288,376 126,378.2385864 126,381 L126,398 C126,400.7614136 123.7614288,403 121,403 L64,403 C61.2385712,403 59,400.7614136 59,398 Z M59,381" style="fill:none;stroke:rgb(0,64,128)" clip-path="url(#clip38)" />
<text x="67" y="396" style="font:13px Verdana">通过学校</text>
<clipPath id="clip39"><path d="M14,314 L112,314 L112,346 L14,346 L14,314 Z" /></clipPath>
<path d="M16,321 C16,318.2385864 18.2385712,316 21,316 L104,316 C106.7614288,316 109,318.2385864 109,321 L109,338 C109,340.7614136 106.7614288,343 104,343 L21,343 C18.2385712,343 16,340.7614136 16,338 Z M16,321" style="fill:rgb(211,223,255);stroke:none" clip-path="url(#clip39)" />
<clipPath id="clip40"><path d="M14,314 L112,314 L112,346 L14,346 L14,314 Z" /></clipPath>
<path d="M16,321 C16,318.2385864 18.2385712,316 21,316 L104,316 C106.7614288,316 109,318.2385864 109,321 L109,338 C109,340.7614136 106.7614288,343 104,343 L21,343 C18.2385712,343 16,340.7614136 16,338 Z M16,321" style="fill:none;stroke:rgb(0,64,128)" clip-path="url(#clip40)" />
<text x="24" y="336" style="font:13px Verdana">通过公交车站</text>
<clipPath id="clip41"><path d="M58,254 L104,254 L104,286 L58,286 L58,254 Z" /></clipPath>
<path d="M60,261 C60,258.2385864 62.2385712,256 65,256 L96,256 C98.7614288,256 101,258.2385864 101,261 L101,278 C101,280.7614136 98.7614288,283 96,283 L65,283 C62.2385712,283 60,280.7614136 60,278 Z M60,261" style="fill:rgb(211,223,255);stroke:none" clip-path="url(#clip41)" />
<clipPath id="clip42"><path d="M58,254 L104,254 L104,286 L58,286 L58,254 Z" /></clipPath>
<path d="M60,261 C60,258.2385864 62.2385712,256 65,256 L96,256 C98.7614288,256 101,258.2385864 101,261 L101,278 C101,280.7614136 98.7614288,283 96,283 L65,283 C62.2385712,283 60,280.7614136 60,278 Z M60,261" style="fill:none;stroke:rgb(0,64,128)" clip-path="url(#clip42)" />
<text x="68" y="276" style="font:13px Verdana">会车</text>
<clipPath id="clip43"><path d="M59,194 L105,194 L105,226 L59,226 L59,194 Z" /></clipPath>
<path d="M61,201 C61,198.2385712 63.2385712,196 66,196 L97,196 C99.7614288,196 102,198.2385712 102,201 L102,218 C102,220.7614288 99.7614288,223 97,223 L66,223 C63.2385712,223 61,220.7614288 61,218 Z M61,201" style="fill:rgb(211,223,255);stroke:none" clip-path="url(#clip43)" />
<clipPath id="clip44"><path d="M59,194 L105,194 L105,226 L59,226 L59,194 Z" /></clipPath>
<path d="M61,201 C61,198.2385712 63.2385712,196 66,196 L97,196 C99.7614288,196 102,198.2385712 102,201 L102,218 C102,220.7614288 99.7614288,223 97,223 L66,223 C63.2385712,223 61,220.7614288 61,218 Z M61,201" style="fill:none;stroke:rgb(0,64,128)" clip-path="url(#clip44)" />
<text x="69" y="217" style="font:13px Verdana">超车</text>
<clipPath id="clip45"><path d="M66,134 L112,134 L112,166 L66,166 L66,134 Z" /></clipPath>
<path d="M68,141 C68,138.2385712 70.2385712,136 73,136 L104,136 C106.7614288,136 109,138.2385712 109,141 L109,158 C109,160.7614288 106.7614288,163 104,163 L73,163 C70.2385712,163 68,160.7614288 68,158 Z M68,141" style="fill:rgb(211,223,255);stroke:none" clip-path="url(#clip45)" />
<clipPath id="clip46"><path d="M66,134 L112,134 L112,166 L66,166 L66,134 Z" /></clipPath>
<path d="M68,141 C68,138.2385712 70.2385712,136 73,136 L104,136 C106.7614288,136 109,138.2385712 109,141 L109,158 C109,160.7614288 106.7614288,163 104,163 L73,163 C70.2385712,163 68,160.7614288 68,158 Z M68,141" style="fill:none;stroke:rgb(0,64,128)" clip-path="url(#clip46)" />
<text x="76" y="157" style="font:13px Verdana">掉头</text>
<clipPath id="clip47"><path d="M58,74 L130,74 L130,106 L58,106 L58,74 Z" /></clipPath>
<path d="M60,81 C60,78.2385712 62.2385712,76 65,76 L122,76 C124.7614288,76 127,78.2385712 127,81 L127,98 C127,100.7614288 124.7614288,103 122,103 L65,103 C62.2385712,103 60,100.7614288 60,98 Z M60,81" style="fill:rgb(211,223,255);stroke:none" clip-path="url(#clip47)" />
<clipPath id="clip48"><path d="M58,74 L130,74 L130,106 L58,106 L58,74 Z" /></clipPath>
<path d="M60,81 C60,78.2385712 62.2385712,76 65,76 L122,76 C124.7614288,76 127,78.2385712 127,81 L127,98 C127,100.7614288 124.7614288,103 122,103 L65,103 C62.2385712,103 60,100.7614288 60,98 Z M60,81" style="fill:none;stroke:rgb(0,64,128)" clip-path="url(#clip48)" />
<text x="68" y="97" style="font:13px Verdana">靠边停车</text>
<clipPath id="clip49"><path d="M92,14 L164,14 L164,46 L92,46 L92,14 Z" /></clipPath>
<path d="M94,21 C94,18.2385712 96.2385712,16 99,16 L156,16 C158.7614288,16 161,18.2385712 161,21 L161,38 C161,40.7614288 158.7614288,43 156,43 L99,43 C96.2385712,43 94,40.7614288 94,38 Z M94,21" style="fill:rgb(211,223,255);stroke:none" clip-path="url(#clip49)" />
<clipPath id="clip50"><path d="M92,14 L164,14 L164,46 L92,46 L92,14 Z" /></clipPath>
<path d="M94,21 C94,18.2385712 96.2385712,16 99,16 L156,16 C158.7614288,16 161,18.2385712 161,21 L161,38 C161,40.7614288 158.7614288,43 156,43 L99,43 C96.2385712,43 94,40.7614288 94,38 Z M94,21" style="fill:none;stroke:rgb(0,64,128)" clip-path="url(#clip50)" />
<text x="102" y="37" style="font:13px Verdana">夜间行驶</text>
</svg>
